<?xml version="1.0" encoding="UTF-8"?>
<svg id="Camada_1" data-name="Camada 1" xmlns="http://www.w3.org/2000/svg" xmlns:xlink="http://www.w3.org/1999/xlink" viewBox="120 120 850 850">
  <defs>
    <style>
      .cls-1 {
        fill: none;
      }

      .cls-2 {
        fill: url(#Gradiente_sem_nome_26);
      }

      .cls-3 {
        fill: url(#Gradiente_sem_nome_26-27);
      }

      .cls-4 {
        fill: url(#Gradiente_sem_nome_26-28);
      }

      .cls-5 {
        fill: url(#Gradiente_sem_nome_26-25);
      }

      .cls-6 {
        fill: url(#Gradiente_sem_nome_26-26);
      }

      .cls-7 {
        fill: url(#Gradiente_sem_nome_26-23);
      }

      .cls-8 {
        fill: url(#Gradiente_sem_nome_26-24);
      }

      .cls-9 {
        fill: url(#Gradiente_sem_nome_26-20);
      }

      .cls-10 {
        fill: url(#Gradiente_sem_nome_26-21);
      }

      .cls-11 {
        fill: url(#Gradiente_sem_nome_26-22);
      }

      .cls-12 {
        fill: url(#Gradiente_sem_nome_26-13);
      }

      .cls-13 {
        fill: url(#Gradiente_sem_nome_26-17);
      }

      .cls-14 {
        fill: url(#Gradiente_sem_nome_26-19);
      }

      .cls-15 {
        fill: url(#Gradiente_sem_nome_26-12);
      }

      .cls-16 {
        fill: url(#Gradiente_sem_nome_26-15);
      }

      .cls-17 {
        fill: url(#Gradiente_sem_nome_26-14);
      }

      .cls-18 {
        fill: url(#Gradiente_sem_nome_26-16);
      }

      .cls-19 {
        fill: url(#Gradiente_sem_nome_26-18);
      }

      .cls-20 {
        fill: url(#Gradiente_sem_nome_26-11);
      }

      .cls-21 {
        fill: url(#Gradiente_sem_nome_26-10);
      }

      .cls-22 {
        fill: #040608;
      }

      .cls-23 {
        fill: url(#Gradiente_sem_nome_26-5);
      }

      .cls-24 {
        fill: url(#Gradiente_sem_nome_26-9);
      }

      .cls-25 {
        fill: url(#Gradiente_sem_nome_26-2);
      }

      .cls-26 {
        fill: url(#Gradiente_sem_nome_26-7);
      }

      .cls-27 {
        fill: url(#Gradiente_sem_nome_26-8);
      }

      .cls-28 {
        fill: url(#Gradiente_sem_nome_26-3);
      }

      .cls-29 {
        fill: url(#Gradiente_sem_nome_26-6);
      }

      .cls-30 {
        fill: url(#Gradiente_sem_nome_26-4);
      }

      .cls-31 {
        fill: #222220;
      }

      .cls-32 {
        clip-path: url(#clippath);
      }
    </style>
    <linearGradient id="Gradiente_sem_nome_26" data-name="Gradiente sem nome 26" x1="160.11" y1="552.39" x2="944.62" y2="552.39" gradientUnits="userSpaceOnUse">
      <stop offset="0" stop-color="#e1c36e"/>
      <stop offset=".24" stop-color="#ddbf6c"/>
      <stop offset=".48" stop-color="#d1b469"/>
      <stop offset=".71" stop-color="#bea364"/>
      <stop offset=".93" stop-color="#a38a5d"/>
      <stop offset="1" stop-color="#9a825b"/>
    </linearGradient>
    <clipPath id="clippath">
      <path class="cls-1" d="M879.85,335.45c42,61.26,66.52,135.1,66.52,214.59,0,211.97-174.38,383.81-389.48,383.81s-389.48-171.84-389.48-383.81,174.38-383.81,389.48-383.81c134.44,0,252.97,67.12,322.96,169.22"/>
    </clipPath>
    <linearGradient id="Gradiente_sem_nome_26-2" data-name="Gradiente sem nome 26" x1="852.64" y1="570.09" x2="900.39" y2="570.09" xlink:href="#Gradiente_sem_nome_26"/>
    <linearGradient id="Gradiente_sem_nome_26-3" data-name="Gradiente sem nome 26" x1="929.32" y1="531.3" x2="945.6" y2="531.3" xlink:href="#Gradiente_sem_nome_26"/>
    <linearGradient id="Gradiente_sem_nome_26-4" data-name="Gradiente sem nome 26" x1="798.92" y1="477.22" x2="931.76" y2="477.22" xlink:href="#Gradiente_sem_nome_26"/>
    <linearGradient id="Gradiente_sem_nome_26-5" data-name="Gradiente sem nome 26" x1="751.48" y1="550.12" x2="861.37" y2="550.12" xlink:href="#Gradiente_sem_nome_26"/>
    <linearGradient id="Gradiente_sem_nome_26-6" data-name="Gradiente sem nome 26" x1="755.84" y1="560.9" x2="865.02" y2="560.9" xlink:href="#Gradiente_sem_nome_26"/>
    <linearGradient id="Gradiente_sem_nome_26-7" data-name="Gradiente sem nome 26" x1="880.41" y1="559.29" x2="944.24" y2="559.29" xlink:href="#Gradiente_sem_nome_26"/>
    <linearGradient id="Gradiente_sem_nome_26-8" data-name="Gradiente sem nome 26" x1="790.7" y1="606.2" x2="868.28" y2="606.2" xlink:href="#Gradiente_sem_nome_26"/>
    <linearGradient id="Gradiente_sem_nome_26-9" data-name="Gradiente sem nome 26" x1="796.68" y1="576.87" x2="868.2" y2="576.87" xlink:href="#Gradiente_sem_nome_26"/>
    <linearGradient id="Gradiente_sem_nome_26-10" data-name="Gradiente sem nome 26" x1="759.85" y1="620.7" x2="865.68" y2="620.7" xlink:href="#Gradiente_sem_nome_26"/>
    <linearGradient id="Gradiente_sem_nome_26-11" data-name="Gradiente sem nome 26" x1="877.43" y1="508.02" x2="943.5" y2="508.02" xlink:href="#Gradiente_sem_nome_26"/>
    <linearGradient id="Gradiente_sem_nome_26-12" data-name="Gradiente sem nome 26" x1="808.83" y1="649.25" x2="901.77" y2="649.25" xlink:href="#Gradiente_sem_nome_26"/>
    <linearGradient id="Gradiente_sem_nome_26-13" data-name="Gradiente sem nome 26" x1="827.06" y1="668.67" x2="931.3" y2="668.67" xlink:href="#Gradiente_sem_nome_26"/>
    <linearGradient id="Gradiente_sem_nome_26-14" data-name="Gradiente sem nome 26" x1="848.37" y1="488.11" x2="938.59" y2="488.11" xlink:href="#Gradiente_sem_nome_26"/>
    <linearGradient id="Gradiente_sem_nome_26-15" data-name="Gradiente sem nome 26" x1="824.12" y1="693.09" x2="1004.41" y2="693.09" xlink:href="#Gradiente_sem_nome_26"/>
    <linearGradient id="Gradiente_sem_nome_26-16" data-name="Gradiente sem nome 26" x1="824.84" y1="641.52" x2="1004.31" y2="641.52" xlink:href="#Gradiente_sem_nome_26"/>
    <linearGradient id="Gradiente_sem_nome_26-17" data-name="Gradiente sem nome 26" x1="824.84" y1="626.09" x2="1004.31" y2="626.09" xlink:href="#Gradiente_sem_nome_26"/>
    <linearGradient id="Gradiente_sem_nome_26-18" data-name="Gradiente sem nome 26" x1="824.84" y1="685.49" x2="1004.31" y2="685.49" xlink:href="#Gradiente_sem_nome_26"/>
    <linearGradient id="Gradiente_sem_nome_26-19" data-name="Gradiente sem nome 26" x1="828.82" y1="642.42" x2="1003.11" y2="642.42" xlink:href="#Gradiente_sem_nome_26"/>
    <linearGradient id="Gradiente_sem_nome_26-20" data-name="Gradiente sem nome 26" x1="828.82" y1="688.67" x2="1003.11" y2="688.67" xlink:href="#Gradiente_sem_nome_26"/>
    <linearGradient id="Gradiente_sem_nome_26-21" data-name="Gradiente sem nome 26" x1="828.82" y1="626.13" x2="1003.11" y2="626.13" xlink:href="#Gradiente_sem_nome_26"/>
    <linearGradient id="Gradiente_sem_nome_26-22" data-name="Gradiente sem nome 26" x1="823.37" y1="687.31" x2="828.71" y2="687.31" xlink:href="#Gradiente_sem_nome_26"/>
    <linearGradient id="Gradiente_sem_nome_26-23" data-name="Gradiente sem nome 26" x1="823" y1="686.74" x2="824.74" y2="686.74" xlink:href="#Gradiente_sem_nome_26"/>
    <linearGradient id="Gradiente_sem_nome_26-24" data-name="Gradiente sem nome 26" x1="887.08" y1="616.47" x2="940.59" y2="616.47" xlink:href="#Gradiente_sem_nome_26"/>
    <linearGradient id="Gradiente_sem_nome_26-25" data-name="Gradiente sem nome 26" x1="747.05" y1="506.38" x2="921.66" y2="506.38" xlink:href="#Gradiente_sem_nome_26"/>
    <linearGradient id="Gradiente_sem_nome_26-26" data-name="Gradiente sem nome 26" x1="887.08" y1="581.19" x2="945.54" y2="581.19" xlink:href="#Gradiente_sem_nome_26"/>
    <linearGradient id="Gradiente_sem_nome_26-27" data-name="Gradiente sem nome 26" x1="924.32" y1="452.81" x2="925.44" y2="452.81" xlink:href="#Gradiente_sem_nome_26"/>
    <linearGradient id="Gradiente_sem_nome_26-28" data-name="Gradiente sem nome 26" x1="922.28" y1="452.05" x2="923.91" y2="452.05" xlink:href="#Gradiente_sem_nome_26"/>
  </defs>
  <g>
    <path class="cls-2" d="M877.63,336.81c42.29,61.54,66.99,135.72,66.99,215.58,0,212.95-175.62,385.57-392.26,385.57s-392.26-172.63-392.26-385.57,175.62-385.57,392.26-385.57c135.4,0,254.77,67.43,325.26,170"/>
    <path class="cls-22" d="M479.33,517.46c.07.03.15.04.22.07.31.13.62.22.94.32.26.08.52.17.78.22.3.06.6.08.9.11.29.03.57.07.86.07.29,0,.58-.04.87-.06.3-.03.6-.04.9-.1.27-.05.53-.14.79-.22.32-.09.64-.18.94-.31.07-.03.15-.04.22-.07,10.52-4.65,20.94-8.55,31.26-11.84-1.78,4.87-3.01,9.95-4.03,15.06-1.46,7.48-2.39,15.09-3.38,22.23-1.43,10.68-3.21,20.37-6.03,26.08-1.39,2.88-2.85,4.66-4.34,5.73-1.5,1.05-3.17,1.74-6.35,1.82h-1.16c-9.62.02-21.45-1.54-34.3-3.19-12.87-1.64-26.8-3.34-41.02-3.35-11.71,0-23.66,1.16-35.33,4.62-10.78,3.19-21.31,8.45-30.89,16.38-.6.37-1.18.78-1.7,1.3-7.2,7.15-14.39,14.79-21.56,22.68-6.8-8.87-12.79-18.45-17.93-28.53,29.14-42.08,62.78-75.36,97.78-101.55l71.58,32.51ZM425.01,472.62c24.84-16.81,50.08-30.29,74.6-40.98,33.16-14.45,64.97-23.83,92.57-29.57,27.09-5.65,50.11-7.77,66.13-7.84.29,0,.62-.01.9-.01,4.87,0,8.98.21,12.33.54l17.59,66.12,8.53,32.05c-29.59-11.89-62.47-18.82-97.58-18.82-19.23,0-39.1,2.07-59.41,6.46-.07.02-.14.03-.2.05-18.75,4.07-37.88,10.2-57.21,18.47l-58.25-26.46ZM477.58,655.06c8.21-19.33,12.9-39.72,15.54-60.09.33,0,.65,0,.98,0,6.37-.04,12.35-1.96,16.98-5.44,4.07-3.01,7.03-6.96,9.21-11.13,3.8-7.34,5.59-15.56,7.03-24.03,2.08-12.67,3.22-26.09,6.02-36.63,1.37-5.27,3.14-9.73,5.26-12.99,2-3.04,4.14-5.02,6.93-6.43,18.7-3.97,36.93-5.83,54.54-5.83,23.19,0,45.29,3.28,66,9.07-.28.45-.54.91-.75,1.41-.3.75-8.1,20.08-9.18,51.85-.02.51-.03,1.02-.03,1.53.04,8.75,2.57,17.44,6.02,26.07,5.21,12.9,12.73,25.7,19.05,36.34,3.15,5.3,6.01,10.06,8.06,13.82,1.03,1.87,1.85,3.49,2.38,4.71,0,0,0,0,0,.01-.9.47-2.14,1.01-3.62,1.5-3.52,1.21-7.99,2.2-11.84,3.15-1.96.5-3.73.94-5.65,1.69-.98.41-2.01.82-3.46,1.89-.72.55-1.58,1.3-2.45,2.6-.86,1.26-1.66,3.27-1.64,5.45l.06,1.07.05.39c.07.47.28,2.18.49,4.15.32,3.01.7,6.88,1,9.99.05.49.09.92.13,1.37l-4.2,4.57c-.32.35-.53.76-.79,1.14h-26.79c-2.21,0-3.99,1.8-3.99,4.02s1.79,4.02,3.99,4.02h25.66s0,.07.02.11l1.28,3.66c-1.37.77-2.78,1.62-4.22,2.68-1.08.8-2.16,1.7-3.22,2.81-1.05,1.11-2.11,2.42-3,4.18-.81,1.66-1.18,3.05-1.48,4.42-.43,2.03-.64,4.02-.78,6.06-.13,2.03-.18,4.08-.18,6.05,0,4.7.26,8.89.36,10.41.03,1.03.07,2.09.06,3.08,0,2.62-.14,5.06-.49,7.03-.26,1.48-.63,2.68-1.05,3.55-.67,1.32-1.19,1.92-2.36,2.63-1.18.67-3.39,1.42-7.4,1.42-28.21,0-56.93-4.36-78.48-8.75-10.78-2.19-19.77-4.39-26.04-6.03-3.14-.82-5.59-1.5-7.25-1.97-.83-.24-1.46-.42-1.88-.54l-.46-.14-.13-.04c-4.82-1.47-9.91,1.28-11.37,6.14-1.46,4.86,1.27,9.99,6.09,11.46.16.05,9.68,2.94,24.82,6.41,3.5,28.3,9.6,56.19,15.24,78.37.04.16.05.32.09.48.02.06.05.12.07.18,1.2,4.7,2.38,9.23,3.51,13.34,0,.03.03.06.03.09-21.45-13.55-43.08-26.51-60.85-41.08-12.96-10.59-23.82-21.94-31.35-34.69-7.53-12.78-11.91-26.92-11.93-44.11,0-1.29.03-2.61.08-3.94.39-10.33,3.26-20.44,7.31-30.77,4.04-10.32,9.26-20.78,13.93-31.71h0ZM321.77,497.06c0-40.13,8.8-79.31,29.44-113.09,20.78-33.99,51.75-58.78,87.76-75.18,35.98-16.39,76.93-24.24,116.86-24.23,18.15,0,36.07,1.64,53.22,4.78l44.36,76.3c-9.34-5.73-19.45-11.14-30.45-15.8-23.63-10.02-50.96-16.79-81.09-16.78-6.63,0-13.39.33-20.27,1.02h0c-34.52,3.44-64.52,11.52-90.12,23.6-38.41,18.08-66.82,45.25-85.32,78.33-12.23,21.83-20.08,46.18-24.07,72.14-.15-3.7-.32-7.39-.31-11.08ZM322.62,314.02c2.67-3.78,5.48-7.47,8.31-11.11l44.48-1.82c3.6-.15,6.77-2.4,8.1-5.78,1.33-3.37.58-7.21-1.93-9.81l-17.35-17.98c41.37-36.39,89.13-54.37,134.64-62.19l31.08,34.13c2.1,2.31,5.2,3.38,8.27,2.84,3.06-.53,5.63-2.58,6.85-5.46l15.44-36.6c.29,0,.58,0,.86,0,30.43,0,57.06,3.49,76,6.98,7.06,1.3,13.04,2.59,17.76,3.7l-44.73,60.03c-17.67-3.12-36-4.76-54.55-4.77-42.28,0-85.65,8.25-124.37,25.86-38.69,17.6-72.81,44.7-95.78,82.29-22.76,37.24-32.15,79.93-32.15,122.72,0,23.66,2.92,47.37,8.01,70.37-19.34-38.03-28.54-79.53-28.54-119.78-.01-49.77,14.04-97.41,39.62-133.62ZM259.97,807.23c-8.3-9.91-16.13-20.22-23.39-30.98-.42-4.38-.68-8.73-.68-13.01,0-10.39,1.29-20.4,4.11-29.76,2.82-9.37,7.13-18.09,13.3-26.07,8.67-11.23,21.01-20.62,32.96-31.97,8.98-8.57,16.66-18.43,22.14-29.49,2.81-5.66,5.01-11.66,6.51-17.9,1.72,2.19,3.42,4.39,5.22,6.5.05.07.11.14.17.21.11.13.2.26.31.39l.44.48.34.35c3.56,3.59,9.34,3.59,12.9,0,.84-.85,1.46-1.82,1.91-2.86,8.3-9.37,16.62-18.22,24.95-26.53,8-7.03,16.67-11.49,26.05-14.28,7.89-2.35,16.3-3.43,24.97-3.74-5.65,25-12.9,49.9-25.65,71.49-10.55,17.86-24.39,31.21-42.18,41.71-8.94,5.28-18.79,9.82-28.46,15.09-9.66,5.28-19.17,11.31-27.24,19.76-17.85,18.7-28.7,44.09-28.71,70.09,0,.17.03.35.03.52ZM281.15,830.58c-3.78-3.81-7.46-7.73-11.08-11.71-.61-4.04-1.01-8.09-1.01-12.15-.02-23.39,9.88-46.69,26.16-63.72,7.08-7.41,15.71-12.98,25.02-18.06,9.3-5.08,19.23-9.65,28.72-15.24,18.94-11.15,34.09-25.75,45.41-44.95,13.9-23.57,21.36-50.18,27.16-76.21,3.53.09,7.08.26,10.65.53-2.67,33.8-14.18,68.17-33.75,95.34-10.34,14.35-23.1,27.34-35.95,40.98-12.83,13.65-25.77,27.97-35.96,45.27-13.9,23.66-20.25,50.88-20.25,78.28,0,1.61.13,3.21.18,4.82-8.78-7.35-17.23-15.07-25.29-23.2ZM325.82,868.86c-.81-6.64-1.32-13.29-1.32-19.91,0-24.57,5.7-48.51,17.7-68.91,8.95-15.22,20.85-28.56,33.51-42,12.64-13.44,26.02-26.96,37.48-42.83h0c21.71-30.25,34.12-67.45,37.12-104.3,1.93.24,3.87.47,5.79.71,6.39.81,12.66,1.64,18.78,2.27-2.51,18.69-6.86,36.97-14.06,53.93-4.36,10.24-9.67,20.85-14.13,32.2-1.98,5.05-3.77,10.27-5.22,15.67-8.76,25.8-16.47,52.7-16.74,80.74v1.23c0,23.9,6.36,47.91,20.33,67.77,14.42,20.4,36.23,33.77,54.1,48.09,10.29,8.2,20.31,17.46,28.02,27.75,4.33,5.77,7.9,11.85,10.47,18.24-79.12-1.03-152.16-27.07-211.83-70.66ZM547.41,939.52c-2.98-8.6-7.5-16.53-12.95-23.79-8.42-11.2-18.99-20.92-29.63-29.41-18.53-14.72-39.46-27.83-52.32-46.2-12.71-18.06-18.66-40.18-18.66-62.46v-1.14c.12-13.53,2.18-26.96,5.26-40.28,1.08,7.98,2.93,15.57,5.63,22.64,7.56,19.83,20.8,35.93,36.46,49.83,23.52,20.85,52.69,37.21,79.21,54.39,13.26,8.57,25.85,17.31,36.73,26.69,10.89,9.38,20.04,19.38,26.65,30.43v.02c1.8,2.97,6.23,8.36,7.8,11.45-26.17,6.31-56.16,7.45-84.17,7.82Z"/>
    <g class="cls-32">
      <path class="cls-22" d="M916.02,406.84c81.71,13.47,143.77,79.93,143.77,159.9,0,89.69-74.72,163.43-171.02,163.43s-177.7-73.75-177.7-163.43,78.06-162.39,174.36-162.39c10.43,0,20.66.85,30.59,2.49"/>
      <path class="cls-22" d="M1282.62,407.11c81.71,13.47,143.77,79.93,143.77,159.9,0,89.69-74.72,163.43-171.02,163.43s-177.7-73.75-177.7-163.43,78.06-162.39,174.36-162.39c10.43,0,20.66.85,30.59,2.49"/>
    </g>
    <g>
      <ellipse class="cls-25" cx="876.52" cy="570.09" rx="23.87" ry="22.76"/>
      <path class="cls-28" d="M945.6,538.96c-1.66,1.15-3.97,1.97-6.18,1.97-5.58,0-10.1-4.31-10.1-9.63s4.52-9.63,10.1-9.63c1.84,0,3.81.53,5.3,1.35"/>
      <path class="cls-30" d="M807.03,500.92c5.91-2.04,9.77-7.32,14.6-10.98,5.94-4.51,12.05-8.8,18.03-13.27,6.1-4.57,11.87-9.83,18.78-13.19,5.8-2.83,12.66-3.64,18.86-5.24,6.54-1.68,13.6-1.27,20.3-1.49,3.89-.13,7.83-.29,11.68.35,3.01.5,6.01,1.06,9.02,1.59l13.47,2.75c-4.25-1.67-8.5-3.33-12.76-5-10.78-4.23-22.72-4.41-34.14-3.96-9.48.37-19.03,1.65-27.96,4.95-8.99,3.32-16.71,8.97-24.26,14.74-6.02,4.6-12.2,9.39-18.06,14.34-3.03,2.56-6,5.18-8.88,7.9-2.39,2.25-5.56,4.58-6.77,7.74"/>
      <path class="cls-23" d="M751.79,587.24c.5-3.17,1.38-7.3,3.06-11.94.34-.95,1.99-5.43,5.2-11.02,3.28-5.7,6.35-9.37,11.33-15.3,3.51-4.19,5.33-6.34,8.26-8.88,2.63-2.27,4.85-3.76,8.88-6.43,8.57-5.69,16.46-8.96,26.32-11.63,7.15-1.93,10.72-2.9,13.47-3.37,9.34-1.58,17.11-1.28,21.43-.92,3.51.29,6.93.92,10.4,1.5.17.03,1.05.26,1.2.08.7-.87-9.47-4.09-10.22-4.28-28.58-7.35-60.95,2.99-80.75,24.67-5.14,5.63-9.4,12.08-12.41,19.09-3.91,9.09-5.59,18.93-6.47,28.74"/>
      <path class="cls-29" d="M756.36,595.19c2.9-12.01,11.23-22.04,19.22-31.11,8.03-9.11,17.27-17.17,28.08-22.81,7.73-4.03,16.01-6.95,24.51-8.85,9.04-2.03,18.29-2.68,27.53-2.82,1.76-.03,3.53-.13,5.3-.05.91.04,1.86.08,2.74.33,1,.27,1.98-.35.61-.92-1.42-.6-3.01-.62-4.51-.77-1.74-.17-3.47-.38-5.21-.6-20.9-2.57-43.49-.48-61.59,11.12-8.97,5.75-16.3,13.64-22.61,22.15-6.19,8.36-13.64,17.47-14.52,28.27-.15,1.87-.06,3.76.31,5.61"/>
      <path class="cls-26" d="M943.58,585.88c-6.24-8.32-10.53-17.29-18.17-24.74-2.68-2.61-6.15-5.34-13.08-10.79-4.63-3.64-6.6-5-8.49-6.2-4.18-2.65-7.65-4.28-10.79-5.74-8.21-3.83-12.77-4.98-12.63-5.51.15-.55,5.27-.03,10.33,1.61,3.12,1.02,5.29,2.16,9.41,4.36,3.3,1.76,3.9,2.24,9.87,5.74,8.89,5.21,9.49,5.28,12.17,7.35,1.72,1.33,3.52,2.95,7.12,6.2,3.73,3.37,5.01,4.72,5.74,5.51,1.77,1.93,2.88,3.39,4.82,5.97,1.73,2.29,3.2,4.37,4.37,6.08"/>
      <path class="cls-27" d="M868.25,533.36c-11.1,4.86-21.7,10.91-31.35,18.26-4.79,3.65-9.45,7.59-13.62,11.94-4.23,4.41-7.94,9.3-11.23,14.45-6.69,10.45-11.69,21.66-14.05,33.88-1.19,6.14-1.78,12.39-1.91,18.64-.12,5.9.03,11.87.98,17.71.91,5.64,2.6,11.17,5.29,16.23,1.37,2.57,2.98,5.03,4.83,7.29,1.38,1.68,2.9,3.24,4.33,4.89.52.6,1.06,1.21,1.5,1.87.3.45.67.93-.1.85-1.11-.12-2.42-1.19-3.34-1.77-1.15-.72-2.25-1.5-3.31-2.35-4.36-3.48-7.93-7.92-10.5-12.86-2.92-5.61-4.1-11.79-4.61-18.04-1.59-19.35.92-37.94,9.05-55.68,5.17-11.29,11.64-22.37,20.63-31.05,4.13-3.99,8.67-7.52,13.31-10.89,9.44-6.86,21.82-15.16,34.15-13.49"/>
      <path class="cls-24" d="M816.17,569.89c2.04,2.04,6.02,6.33,8.67,8.88,4.18,3.98,4.8,4.8,6.94,6.43,1.43,1.22,3.98,2.86,8.88,6.02,4.29,2.65,6.43,4.08,8.98,5.51,2.14,1.22,3.67,1.94,6.73,3.47,8.37,4.18,11.84,5.51,11.84,5.92-.2.61-8.98-1.94-10.71-2.45-4.49-1.33-6.73-2.04-9.49-3.26-2.96-1.43-2.65-1.63-8.88-5-4.49-2.45-4.9-2.55-7.65-4.18-1.84-1.12-4.08-2.55-6.63-4.8-1.43-1.33-1.94-1.94-4.59-4.59-2.04-2.14-5.2-5.1-6.84-6.53-.31-.41-.51-.61-.71-.82-2.14-2.55-6.22-7.35-7.14-8.47-.71-1.02-2.14-2.86-3.67-5.31-1.53-2.45-3.47-5.82-5.2-10.1l3.98-3.06c1.84,4.18,3.57,6.84,5.1,9.28,1.63,2.45,2.96,4.29,3.67,5.2,1.22,1.53,5.82,6.73,6.84,7.75l-.1.1Z"/>
      <path class="cls-21" d="M759.93,603.15c9.48,10.81,17.73,19.08,30.48,26.01,6.29,3.42,13.09,5.86,20.09,7.34,7.07,1.5,14.32,1.98,21.53,1.65,7.65-.35,15.43-1.48,22.73-3.84,1.69-.55,3.35-1.18,4.98-1.89,1.51-.66,3.18-1.24,4.58-2.12.76-.47,2.03-1.73.93-2.58-1.16-.89-3.88.27-5.08.56-7.72,1.9-15.5,3.29-23.43,3.85-13.95,1-28.69-.13-41.33-6.6-7.35-3.76-13.58-9.33-19.92-14.54-2.51-2.06-4.97-4.19-7.65-6.03-2.98-2.05-4.58-1.05-8-1.83"/>
      <path class="cls-20" d="M942.52,502.57c-13.53-3.13-27.74-1.64-41.25,1.12-5.36,1.1-18.66,5.34-23.83,7.17l5.28,4.36c5.48-1.8,16.01-5.43,21.67-6.37,5.74-.95,14.35-2.32,20.11-2.13,6.41.22,12.83,1.08,19.01,2.72"/>
      <path class="cls-15" d="M871.44,648.51c-7.77,2.47-15.25,6.22-23.36,7.51-3.78.55-7.61.96-11.34,1.42-3.92.37-7.84.74-11.72.79-4.11.05-8.17.01-12.27.07-.41-.09-4.02-.36-3.92.37.15.87,3.26,1.24,3.85,1.41,4.21.9,7.43,3.14,12.05,3.45,8.31.62,16.66.01,24.94-1.64,7.42-1.51,14-4.56,21.08-7.02.27-.09.86-.38,1.82-.71,2.9-1.32,8.76-3.81,10.12-4.51,1.09-.61,3.08-1.68,5.62-3.18,2.44-1.54,9.95-6.97,13.47-10.03l-6.55-1.7-.04.32c-3.52,3.06-6.33,4.64-8.77,6.18-2.44,1.54-4.53,2.57-5.57,3.08-1.68.89-8.17,3.53-9.44,4.05l.05.14Z"/>
      <path class="cls-12" d="M928.92,661.02c.44-1.38.9-2.67,1.5-3.97l.89-6.1c-10.27,11.23-23.63,19.59-38.14,24.18-5.32,1.68-10.79,2.75-16.28,3.73-11.97,2.14-24.18,1.71-36.19.1-2.48-.33-4.94-.77-7.4-1.17-1.78-.29-4.52-1.23-6.23-.67.23.45.59.57,1.04.78.56.25,1.12.5,1.68.73,1.32.54,2.67,1.03,4.01,1.5,2.88,1.01,5.8,1.92,8.73,2.75,9.1,2.55,18.52,3.81,27.97,3.45,2.89-.11,8.09-.33,14.76-1.63,1.75-.34,9.17-1.85,18.43-5.74,8.55-3.59,14.39-7.42,15.7-8.29,2.36-1.57,5.07-3.41,7.98-5.88.56-1.24,1.13-2.47,1.54-3.77Z"/>
      <path class="cls-17" d="M938.13,476.47c-10.54-3.61-22.04-3.42-33.02-2.65-9.32.65-18.68,2.19-27.38,5.73-8.75,3.55-16.18,9.37-23.45,15.31-1.97,1.61-3.92,3.36-5.91,5.02,1.24.06,2.08.57,2.73,1.24.24-.03.44-.14.7-.14,1.56,0,2.66.6,3.38,1.47.47.13,1.02.17,1.39.41,1.59-1.25,3.18-2.49,4.76-3.76,5.87-4.7,11.39-10.09,18.09-13.62,5.63-2.97,12.35-3.98,18.41-5.74,6.39-1.86,13.35-1.66,19.94-2.08,3.82-.24,7.7-.52,11.51,0,2.98.4,5.95.87,8.93,1.31l.39.07"/>
      <g>
        <path class="cls-16" d="M917.3,689.44c-4.71,1.46-9.47,2.77-14.2,4.21-8.26,2.45-16.73,3.88-25.41,3.78-4.39,0-8.98.1-13.37-.31-2.35-.31-4.59-.82-6.94-1.02-2.04-.2-4.08-.2-6.02-.61-4.18-.92-8.16-2.55-12.24-3.78-3.57-1.02-6.94-1.94-10.3-3.47h-.1c-.71-.1-1.43-.2-2.14-.31-.71-.1-1.73-.1-2.45-.41.71.41,1.53.61,1.84.71,2.14.92,4.18,1.84,6.43,2.55,1.84.61,3.78,1.02,5.71,1.63,4.18,1.33,8.26,3.27,12.65,3.98,2.04.31,4.18.51,6.22.71,2.14.2,4.18.61,6.22.92,4.18.61,8.47.61,12.75.61h4.29c2.96-.1,5.92-.31,8.88-.71,8.65-1.23,18.18-3.47,27.23-6.55.33-.64.65-1.29.95-1.95Z"/>
        <path class="cls-18" d="M840.35,623.56c3.06,4.8,6.33,9.39,10.31,13.27,3.88,3.67,8.16,6.84,12.55,9.79,9.59,6.33,19.39,12.14,30.3,15.81,5.82,1.94,11.73,4.08,17.65,5.31,4.84,1.04,9.76,1.02,14.69.63.15-.34.29-.69.45-1.02-1.98.18-3.96.33-5.95.29-8.98-.1-17.04-3.27-25.4-6.02-3.88-1.22-7.75-2.55-11.43-4.29-3.88-1.84-7.55-4.08-11.22-6.22-7.24-4.18-14.59-8.78-20.61-14.59-3.06-2.96-5.61-6.33-7.86-9.8-1.22-1.84-2.45-3.67-3.57-5.51-.61-.82-2.65-2.96-2.35-3.98,1.02-.31,2.04,1.53,2.55,2.14,1.02,1.22,2.24,2.45,3.37,3.57,2.14,2.14,4.18,4.39,6.33,6.43,4.39,4.29,9.28,7.55,14.39,10.82,2.76,1.84,5.41,3.77,8.37,5.41,2.55,1.43,5.31,2.65,7.96,3.88,2.65,1.22,5.1,2.65,7.75,3.88,2.76,1.22,5.71,2.04,8.67,2.86,10.61,2.87,21.23,5.06,32.09,3.48.2-.6.44-1.2.68-1.78-7.23.94-14.65.93-21.75-.48-5.51-1.02-10.92-2.75-16.22-4.49-5.61-1.84-11.22-4.08-16.43-6.94-4.79-2.65-9.28-5.81-13.88-8.67-5-3.16-9.18-6.73-13.26-10.92-2.04-2.14-4.18-4.29-6.12-6.53-1.63-1.74-3.27-3.98-5.41-5.1-2.24-1.33-1.33,1.33-.61,2.45,1.33,2.14,2.65,4.18,3.98,6.32Z"/>
        <path class="cls-13" d="M934.13,638.9c-2.33.36-4.67.62-7.06.57-5.51-.1-11.12-.31-16.63-.41-6.02-.2-11.53-1.43-17.24-3.16-5.31-1.53-10.61-3.16-15.51-5.71-4.9-2.45-9.59-5.41-14.28-8.26-2.55-1.43-4.9-2.96-7.14-4.69-1.02-.82-2.04-1.63-3.06-2.35-.61-.41-1.94-1.02-1.84-1.94,1.12-.71,3.37,1.02,4.29,1.53,1.84,1.12,3.67,1.84,5.51,2.76,3.98,1.94,7.75,4.28,11.73,6.12,4.18,1.94,8.57,3.16,13.06,4.29,8.88,2.24,17.96,4.08,27.14,4.18,7.97.14,16.04-.52,23.94-2.03,0,0,0-.03.01-.04,0-.04,0-.05.03-.16.06-.28.11-.56.16-.83-10.32,2.07-20.94,2.66-31.39,1.63-8.88-.82-17.86-2.55-26.22-5.51-8.37-2.86-15.61-7.75-23.57-11.32-1.53-.71-3.37-1.84-5.1-1.84-1.53-.1-1.22,1.43-.41,2.24,1.33,1.53,3.16,2.75,4.8,3.88,1.63,1.22,3.37,2.45,5.1,3.57,3.88,2.45,7.96,4.59,11.94,6.84,3.88,2.14,7.65,4.29,11.73,5.92,8.37,3.16,17.24,5.81,26.22,6.02,7.81.17,15.69.67,23.47-.32.11-.32.22-.65.33-.97Z"/>
        <path class="cls-19" d="M921.35,679.89c.25-.62.51-1.23.76-1.85-3.56,1.66-7.17,3.23-10.95,4.69-17.35,6.73-36.73,10.92-55.3,8.77-5.61-.61-11.02-1.63-16.53-2.65-2.76-.51-5.41-.92-8.16-1.33-2.04-.2-3.98-.82-6.02-1.12h-.31c1.02.41,2.14,1.12,2.55,1.22.41.2.92.41,1.33.61h.1c1.22.1,2.45.31,3.77.51,3.67.61,7.24,1.33,10.82,2.04,6.94,1.33,13.77,2.24,20.81,2.14h.71c7.35-.2,14.69-1.33,21.94-2.65,11.73-2.14,23.16-5.81,34.28-10.3.07-.03.13-.06.19-.09Z"/>
        <path class="cls-14" d="M843.82,626.72c2.24,3.47,4.8,6.84,7.86,9.8,6.02,5.81,13.37,10.41,20.61,14.59,3.67,2.14,7.35,4.39,11.22,6.22,3.67,1.73,7.55,3.06,11.43,4.29,8.37,2.75,16.43,5.92,25.4,6.02,1.99.04,3.98-.11,5.95-.29.96-2.07,1.93-4.14,2.62-6.33.15-.46.3-.89.45-1.33-10.86,1.57-21.48-.62-32.09-3.48-2.96-.82-5.92-1.63-8.67-2.86-2.65-1.22-5.1-2.65-7.75-3.88-2.65-1.22-5.41-2.45-7.96-3.88-2.96-1.63-5.61-3.57-8.37-5.41-5.1-3.27-10-6.53-14.39-10.82-2.14-2.04-4.18-4.29-6.33-6.43-1.12-1.12-2.35-2.35-3.37-3.57-.51-.61-1.53-2.45-2.55-2.14-.31,1.02,1.73,3.16,2.35,3.98,1.12,1.84,2.35,3.67,3.57,5.51Z"/>
        <path class="cls-9" d="M921.34,679.9c-.06.03-.13.05-.19.08-11.12,4.49-22.55,8.16-34.28,10.3-7.24,1.33-14.59,2.45-21.94,2.65h-.71c-7.04.1-13.88-.82-20.81-2.14-3.57-.71-7.14-1.43-10.82-2.04-1.33-.2-2.55-.41-3.77-.51,3.37,1.53,6.73,2.45,10.3,3.47,4.08,1.22,8.06,2.86,12.24,3.78,1.94.41,3.98.41,6.02.61,2.35.2,4.59.71,6.94,1.02,4.39.41,8.98.31,13.37.31,8.67.1,17.14-1.33,25.41-3.78,4.73-1.44,9.5-2.75,14.2-4.21,1.46-3.13,2.77-6.32,4.05-9.54Z"/>
        <path class="cls-10" d="M934.13,638.9c.52-1.56,1.05-3.12,1.58-4.69.37-1.09.72-2.19,1.03-3.3.1-.34.18-.68.27-1.02.02-.07.02-.08.03-.09-7.91,1.5-15.98,2.17-23.94,2.03-9.18-.1-18.26-1.94-27.14-4.18-4.49-1.12-8.88-2.35-13.06-4.29-3.98-1.84-7.75-4.18-11.73-6.12-1.84-.92-3.67-1.63-5.51-2.76-.92-.51-3.16-2.24-4.29-1.53-.1.92,1.22,1.53,1.84,1.94,1.02.71,2.04,1.53,3.06,2.35,2.24,1.73,4.59,3.26,7.14,4.69,4.69,2.86,9.39,5.81,14.28,8.26,4.9,2.55,10.2,4.18,15.51,5.71,5.71,1.73,11.22,2.96,17.24,3.16,5.51.1,11.12.3,16.63.41,2.39.04,4.73-.21,7.06-.57Z"/>
        <path class="cls-11" d="M827.39,687.63c.41.2.92.41,1.33.61-.71-.1-1.43-.2-2.14-.31-.71-.1-1.73-.1-2.45-.41-.1,0-.2,0-.31-.1-1.12-.92.1-1.12.92-1.02h.1c1.02.41,2.14,1.12,2.55,1.22Z"/>
        <path class="cls-7" d="M824.74,686.41c-.82-.1-2.04.1-.92,1.02-.61-.31-1.02-.71-.71-1.12.2-.41.82-.31,1.63.1Z"/>
      </g>
      <path class="cls-8" d="M939.14,618.95c-3.28.85-5.91,1.33-7.68,1.65-9.07,1.63-18.11,1.79-27.25.61-3.83-.5-7.65-1.12-11.42-1.93-1.36-.29-2.73-.59-4.06-.99-.5-.15-1.33-.29-1.64-.75.28-.21.74-.18,1.09-.2,1.06-.05,2.12-.02,3.18,0,3.59.07,7.18.18,10.76.33,5.27.22,10.54.29,15.79-.38,2.51-.32,4.8-.9,7.22-1.62,5.17-1.54,10.33-3.09,15.47-4.72"/>
      <g>
        <path class="cls-5" d="M816.37,456.74c10.61-5.71,15.92-8.47,21.53-10.61,4.18-1.53,16.02-5.61,31.73-6.43,2.35-.1,12.55-.51,25.71,1.84,7.24,1.22,19.28,6.84,26.32,10-1.84-.71-2.04-.82-3.67-1.43-1.94-.61-6.43-2.14-11.33-3.06-4.18-.82-5.61-.61-19.9-.61-11.84,0-12.96-.2-16.73.31-4.9.61-9.08,1.63-12.04,2.35-5.41,1.22-9.49,2.55-11.02,3.06-3.88,1.22-8.88,2.96-14.49,5.61-6.63,3.06-11.22,5.71-16.12,8.77-1.73,1.02-10.51,6.33-10.1,7.04,1.33,2.55,10.51-1.02,12.24-1.43,4.9-1.12,9.79-1.94,14.79-2.04,7.24-.2,14.18,2.04,21.22,3.67,3.47.92,6.02,1.43,9.49,2.65,3.37,1.12,5.61,2.24,9.9,4.29,4.59,2.14,6.84,3.26,9.79,5,2.75,1.73,5.1,3.47,9.69,6.94,3.57,2.75,5.41,4.18,7.14,5.61.92.82,4.69,4.18,9.28,9.79,4.59,5.71,8.06,11.33,7.75,11.53-.1.1-1.63-1.84-4.8-4.9-1.33-1.22-2.24-2.04-2.96-2.65-8.57-7.45-18.06-14.9-28.06-20-6.12-3.06-8.16-3.98-8.88-4.29-1.43-.61-2.96-1.12-6.02-2.24-2.96-1.12-5.1-1.94-8.06-2.96-2.65-.82-4.18-1.43-6.43-1.94-4.39-1.22-7.75-1.73-8.88-1.94-2.04-.2-5.1-.71-9.28-.71h-.41c-3.37,0-5.71.31-8.88.61-4.49.51-7.96,1.12-9.79,1.53-4.8.92-7.35,1.43-10.71,2.75-5.71,2.14-9.69,5.1-11.94,6.73-2.65,1.94-4.29,3.57-7.35,6.43-3.26,3.16-6.43,6.12-9.79,10.41-4.9,6.33-8.47,13.06-7.96,13.47.31.2,1.43-1.43,3.98-3.67,2.86-2.45,5.1-3.57,9.79-6.12,10.41-5.51,8.67-4.9,10.71-5.82,7.45-3.37,13.77-4.59,18.98-5.51,6.22-1.12,11.22-1.43,13.16-1.53,4.49-.2,11.53-.51,20.2,1.22,1.33.31.92.2,12.86,3.67,12.55,3.57,13.88,3.88,16.83,5.2,4.39,1.94,7.35,3.88,12.86,7.65,9.28,6.33,18.77,14.08,18.37,14.69-.51.61-10.92-6.63-29.38-15.61-4.8-2.35-9.39-4.39-15.61-5.82-4.69-1.02-3.37-.51-13.77-1.84-12.14-1.53-14.9-1.53-17.14-1.53-6.22.1-11.02,1.02-14.08,1.53-2.75.51-7.35,1.33-13.16,3.37-5.92,2.04-10.1,4.18-13.16,5.82-2.86,1.53-5.51,2.86-8.88,5.2-5.82,3.98-9.59,7.86-12.86,11.33-2.96,3.06-4.9,5.1-7.04,8.26-2.96,4.29-4.49,7.96-6.12,11.94-1.63,3.98-4.9,13.88-6.43,20.81h-.1c-.41-5.61-.71-20.92.61-28.36,1.43-8.06,3.88-13.77,6.43-19.69.92-2.24,5.2-12.04,13.26-23.87,6.33-9.18,11.94-15.41,15.61-19.28,5.92-6.33,10.51-11.33,17.86-16.53,3.98-2.75,7.75-4.8,15.2-8.67Z"/>
        <path class="cls-6" d="M944.95,568.43c-.61.76-1.23,1.51-1.86,2.27-2.24,2.75-4.29,5.2-7.35,8.26-.82.82-3.57,3.57-7.65,6.73-1.12.82-3.88,3.06-10.1,7.04-6.02,3.88-9.08,5.82-11.63,7.04-9.79,4.69-19.18,5.2-19.28,4.9,0-.2,2.55-.61,6.73-2.45,2.75-1.22,4.08-2.04,9.18-5.2,8.57-5.2,7.96-4.59,10.1-6.12,2.96-2.04,5-3.78,8.88-7.04,3.16-2.75,5.61-4.69,8.57-7.65,4.39-4.39,7.45-8.06,8.57-9.49,2.78-3.55,4.95-6.76,6.43-9.09"/>
        <path class="cls-3" d="M925.44,453.07c-.31-.1-.71-.31-1.12-.51.31.1.71.31,1.12.51Z"/>
        <path class="cls-4" d="M922.28,451.74c.51.2,1.02.41,1.63.61-.51-.1-1.02-.41-1.63-.61Z"/>
      </g>
    </g>
  </g>
</svg>